<svg width="527" height="599" viewBox="0 0 527 599" fill="none" xmlns="http://www.w3.org/2000/svg">
<path d="M481.6 424.4C484.2 440.1 474.4 457.7 465.8 469.7C457.2 481.6 447 492.6 435.2 501.5C423.7 510.1 409.3 517.6 394.6 517.1C384.7 516.8 377.7 511.4 372.8 503.1C369.4 497.3 368.6 491 368.7 484.3C368.9 462.6 382.7 442.6 395.5 426.1C409 408.6 430.5 390.3 454.4 397.8C464.3 400.9 473.8 406.5 478.7 415.9C480.2 418.7 481.1 421.5 481.6 424.4ZM394.5 473.2C394.6 475.3 394.9 477.4 395.6 479.6C397.5 485.4 402.2 490.4 408 492.4C415.3 494.9 422.3 492 428.5 488.3C437.4 482.9 444.9 474.4 450.6 465.9C456.5 457.1 462.5 444.7 455.9 434.8C448 423 431.2 421.8 420.4 429.9C414.5 434.3 408.8 440.8 404.7 446.9C399.5 454.6 394.1 463.7 394.5 473.2Z" fill="black"/>
<path d="M324 500.4C327.6 500.3 331.3 500.5 334.9 501.1C351.9 503.7 378.4 519 372.5 539.8C366.2 561.8 338.2 572.1 318.8 578.7C305.4 583.2 290.9 586.6 276.6 586.6C262.8 586.6 245.3 583.7 236.2 572.2C213.9 544.3 262 520.5 281.5 511.8C294.9 505.9 309.3 500.8 324 500.4ZM292.6 572.6C306.2 571.7 355.3 557.8 340 536.1C333.6 527 323.6 522.6 312.6 523.4C296.2 524.5 272.8 531.8 264.8 547.6C256.9 563.3 275.6 572.9 288.6 572.8C290 572.8 291.3 572.7 292.6 572.6Z" fill="black"/>
<path d="M440.5 117C432.2 111.1 417 100.4 416.3 99.8C421.6 90.5 416.2 79.6 409.3 73.1C408.2 72.1 407.1 71.1 405.9 70.2C394 61.1 375.3 54.3 363.8 67.5C359.4 72.6 356.3 78 355.4 84.8C354.7 90.5 357.2 96.1 360.8 100.4C363.7 103.8 367.3 106.5 371 109.1C373.9 111.2 376.9 113.2 380.2 114.7C385 116.8 390.4 117 395.5 115.8C397.4 115.4 399.2 114.5 401 113.8C405.1 116.9 413.1 126.9 415.1 135.3C412.8 136 410.6 136.8 408.4 137.3C402.4 138.6 396.4 139.1 390.2 138C377.9 135.8 366.6 129.5 356.9 121.8C347.7 114.5 337.8 105.2 333.6 93.9C330.9 86.7 330.8 78.9 332.5 71.4C334.5 62.6 338.8 54.8 345.4 48.4C352.6 41.5 361.4 38.6 371.3 38.4C386.1 38.1 401 44 413.2 52.2C416.9 54.7 420.3 57.6 423.7 60.4C426 62.3 428.3 64.3 430.3 66.4C432.4 68.6 434.2 71 436 73.4C442.7 82.4 447.3 92.4 446.4 103.8C446.2 108.9 443.6 113.1 440.5 117Z" fill="black"/>
<path d="M77.3 63C84.5 57.5 91.6 52.1 99.1 46.4C113.3 68.7 129.8 88.7 149.5 106.5C148.3 107.3 147.4 108 146.3 108.7C143.6 110.4 140.8 112.1 138.1 113.8C136.7 114.7 135.4 114.6 134.1 113.6C130.2 110.7 126.1 108.1 122.4 105C116.5 100.1 110.8 94.9 105.1 89.8C104.2 89 102.2 87.3 100.4 86C101.9 93.4 107.7 112.4 111.9 122C110.4 124.1 101.5 132.8 100.4 133.6C94.2 134.3 87 134.9 80.8 135.5C73.2 136.3 64.5 137.5 56.2 138.4C57.5 139.2 58.7 139.7 59.4 139.9C71.2 144.6 84.1 148.5 96.8 150.1C95.6 152 90.8 158.3 87.8 162.5C62.7 161.7 39 155.4 15.5 145.9C19.7 137.8 23.6 130.1 27.8 122C48.4 120.4 69.4 119.8 91.2 120.2C83.6 98.4 77.6 77.3 77.3 63Z" fill="black"/>
<path d="M171.9 77.1C175.3 82.7 178.2 87.6 181.4 92.7C175.9 94.8 170.7 96.8 165.1 99C147.5 79.1 133.2 56.6 121.7 32.6C141.7 22.4 160.9 13.7 181.2 8.70003C187.4 7.20003 193.6 5.80003 200.1 6.50003C212.8 7.80003 222.2 17 224.5 29.3C225.5 34.8 225.5 40.4 224.2 45.8C221.4 57.2 213.2 64.5 202.1 67.6C192 70.6 176.1 75.7 171.9 77.1ZM164.3 61.5C177 57.3 187.9 53.8 192.2 52.2C199.4 49.5 202.1 41.5 198.7 34.6C194.2 25.4 184.7 28.5 176.8 30.4C172 31.5 167.4 33.7 162.7 35.5C159.8 36.6 156.3 38.4 153.6 39.5C155.4 44.1 162.1 58.2 164.3 61.5Z" fill="black"/>
<path d="M175.2 552.6C174.9 544.6 174.3 537.2 175.5 529.5C184.8 529.5 194.3 529.5 204.1 529.4C204.2 529.8 204 530.9 204 532C204.2 542.9 205.4 553.7 208.9 564C213.2 576.7 220.1 587.7 231.2 595.7C231.5 595.9 233.1 597.3 233.1 597.3C233.1 597.3 231.2 597.5 230.7 597.5C224.7 597.8 218.8 598.1 212.8 598.3C207.5 598.5 202.2 598.8 196.9 598.7C190.3 598.5 183.7 598 177 597.5C171.7 597.1 166.5 596.6 161.2 596.1C160 596 158.9 595.9 157.7 595.7C147.1 593.8 136.6 591.5 126.5 587.5C119.6 584.7 113.1 581.1 107.3 576.4C101.5 571.7 96.6 566.4 95 558.9C94.7 557.4 94.5 555.9 94.8 554.4C96.5 546.7 108 545.4 114.3 545.3C121.4 545.2 128.2 546.5 135 547.8C142.5 549.2 150 550.5 157.5 551.5C163.3 552.1 169 552.2 175.2 552.6ZM178.8 569.4C173.5 569 168.4 568.9 163.3 568.3C157.7 567.6 152.2 566.8 146.6 566C141.4 565.2 136.1 563.6 130.9 565C129.6 565.3 128.3 565.9 127.7 567C126.8 568.5 127.2 570.4 128 572C130.7 577.5 136.1 580.3 141.7 582.1C149.6 584.5 157.8 585 166 586.1C169.9 586.6 173.7 587 177.6 587.4C179.5 587.6 181.5 587.7 183.5 587.8C184.1 587.8 188.6 587.6 188.8 588C185.3 581.5 181.9 575.1 178.8 569.4Z" fill="black"/>
<path d="M318.5 98.4C311.8 95.9 305.2 93.5 298.5 91.1C297.3 86.2 296.2 81.3 295 76.3C281 73.3 268.4 71.3 254.5 70.3C252.6 74.3 250.5 78.5 248.2 83.2C242.2 83.2 235.2 83.2 228.5 83.2C228.5 82.6 229 81.8 229.3 81.1C232.5 72.8 242.6 51.8 252.6 32.7C259.7 19.1 272.7 0.700025 272.7 0.700025C274.4 0.200025 298.5 3.40002 302.8 5.00002C308.8 28.1 315.8 68.5 318.5 98.4ZM280.8 26.7C274.9 33.9 268.6 43.7 263.2 53.6C268 54.2 286.1 56.5 290.6 57.1C288.3 47.1 285.6 36.2 281.5 26.8L280.8 26.7Z" fill="black"/>
<path d="M524.3 221.3C518.9 223.2 513.3 224.2 507.5 224.9C503.5 210.6 499.2 196.6 492.6 182.8C481.6 185.9 471 189.9 460.3 193.3C449.6 196.7 439 200.1 427.8 203.7C425.9 199.4 420.4 189.3 416.6 184.2C422.4 181.5 427.6 178.9 432.9 176.5C447.3 170 473.7 158 479.5 155.2C472.1 142.1 464.5 130.7 455.3 119.2C460.4 116 465.6 112.8 471 109.4C472.1 110.9 472.9 112 473.7 113.1C489.7 135.4 503.3 158.8 513.2 184.6C515.4 190.3 517.4 196.1 519.2 202C521 207.6 522.9 213.5 524.3 221.3Z" fill="black"/>
<path d="M460.5 325.3C458.1 338 451.5 366.3 444.1 382.5C438.5 379.2 433 376 427.1 372.5C436.4 346.5 442.5 313.7 443.3 294.6C470.7 300.2 498.5 305 526.8 305.7C527 312.9 524.5 333 522.7 337.5C496.1 335.2 471.3 328 460.5 325.3Z" fill="black"/>
<path d="M79.2 175.9C76.8 180.7 74.6 185.1 72.3 189.7C48.5 195.9 24.5 195.1 0 192.4C1.1 184.2 3.5 176.6 6.3 169.2C21.8 173.1 59.8 178.8 79.2 175.9Z" fill="black"/>
</svg>
